{"title":"The.Big.Bang.2011.720p.BRRip.x264.AC3-HDLiTE","uid":6480127,"size":2256159830,"categoryP":"video","categoryS":"hd___movies","magnet":"?xt=urn:btih:f3ebc018826d54a8f669a87ecf7a6c97a45bda97&amp;dn=The.Big.Bang.2011.720p.BRRip.x264.AC3-HDLiTE&amp;tr=udp%3A%2F%2Ftracker.openbittorrent.com%3A80&amp;tr=udp%3A%2F%2Fopen.demonii.com%3A1337&amp;tr=udp%3A%2F%2Ftracker.coppersurfer.tk%3A6969&amp;tr=udp%3A%2F%2Fexodus.desync.com%3A6969","seeders":0,"leechers":1,"uploader":"Test_Verify","files":4,"time":1308482445,"description":"oooo   ooooo oooooooooo.   ooooo         o8o  ooooooooooooo oooooooooooo\n`888'   `888' `888'   `Y8b  `888'         `&quot;'  8'   888   `8 `888'     `8\n888     888   888      888  888         oooo       888       888\n888ooooo888   888      888  888         `888       888       888oooo8\n888     888   888      888  888          888       888       888    &quot;\n888     888   888     d88'  888       o  888       888       888       o\no888o   o888o o888bood8P'   o888ooooood8 o888o     o888o     o888ooooood8\n\nThe.Big.Bang.2011.720p.BRRip.x264.AC3-HDLiTE\n\nGeneral:\n\nFormat                           : Matroska\nDXVA Compatible                  : Yes\nFile size                        : 2.08 GiB\nDuration                         : 1h 41mn\nOverall bit rate                 : 2 941 Kbps\nEncoded By                       : Deaftone\nSource                           : Bluray.1080p.TrueHD5.1.x264-MaRu\nIMDB                             : http://www.imdb.com/title/tt1307873\n\nVideo\nID                               : 1\nFormat                           : AVC\nFormat/Info                      : Advanced Video Codec\nFormat profile                   : &lt;a class=&quot;__cf_email__&quot; href=&quot;/cdn-cgi/l/email-protection&quot; data-cfemail=&quot;e1a9888689a1add5cfd0&quot;&gt;[email&amp;#160;protected]&lt;/a&gt;&lt;script cf-hash='f9e31' type=&quot;text/javascript&quot;&gt;\n/* &lt;![CDATA[ */!function(){try{var t=&quot;currentScript&quot;in document?document.currentScript:function(){for(var t=document.getElementsByTagName(&quot;script&quot;),e=t.length;e--;)if(t[e].getAttribute(&quot;cf-hash&quot;))return t[e]}();if(t&amp;&amp;t.previousSibling){var e,r,n,i,c=t.previousSibling,a=c.getAttribute(&quot;data-cfemail&quot;);if(a){for(e=&quot;&quot;,r=parseInt(a.substr(0,2),16),n=2;a.length-n;n+=2)i=parseInt(a.substr(n,2),16)^r,e+=String.fromCharCode(i);e=document.createTextNode(e),c.parentNode.replaceChild(e,c)}}}catch(u){}}();/* ]]&gt; */&lt;/script&gt;\nFormat settings, CABAC           : Yes\nFormat settings, ReFrames        : 8 frames\nCodec ID                         : V_MPEG4/ISO/AVC\nDuration                         : 1h 41mn\nBit rate                         : 2 299 Kbps\nWidth                            : 1 280 pixels\nHeight                           : 544 pixels\nDisplay aspect ratio             : 2.35:1\nFrame rate                       : 23.976 fps\nColor space                      : YUV\nChroma subsampling               : 4:2:0\nBit depth                        : 8 bits\nScan type                        : Progressive\nBits/(Pixel*Frame)               : 0.138\nStream size                      : 1.59 GiB (76%)\nWriting library                  : x264 core 112 r1834 a51816a\n\nAudio\nID                               : 2\nFormat                           : AC-3\nFormat/Info                      : Audio Coding 3\nMode extension                   : CM (complete main)\nCodec ID                         : A_AC3\nDuration                         : 1h 41mn\nBit rate mode                    : Constant\nBit rate                         : 640 Kbps\nChannel(s)                       : 6 channels\nChannel positions                : Front: L C R, Side: L R, LFE\nSampling rate                    : 48.0 KHz\nBit depth                        : 16 bits\nCompression mode                 : Lossy\nStream size                      : 464 MiB (22%)\nLanguage                         : English\n\nSubtitles:                       : English, Spanish, Portuguese, Romanian","torrent":{"xt":"urn:btih:f3ebc018826d54a8f669a87ecf7a6c97a45bda97","amp;dn":"The.Big.Bang.2011.720p.BRRip.x264.AC3-HDLiTE","amp;tr":["udp%3A%2F%2Ftracker.openbittorrent.com%3A80","udp%3A%2F%2Fopen.demonii.com%3A1337","udp%3A%2F%2Ftracker.coppersurfer.tk%3A6969","udp%3A%2F%2Fexodus.desync.com%3A6969"],"infoHash":"f3ebc018826d54a8f669a87ecf7a6c97a45bda97","infoHashBuffer":{"type":"Buffer","data":[243,235,192,24,130,109,84,168,246,105,168,126,207,122,108,151,164,91,218,151]},"announce":[],"urlList":[]}}